<?xml version="1.0" encoding="iso-8859-1"?>
<!-- Generator: Adobe Illustrator 26.4.1, SVG Export Plug-In . SVG Version: 6.00 Build 0)  -->
<svg version="1.1" id="Layer_1" xmlns="http://www.w3.org/2000/svg" xmlns:xlink="http://www.w3.org/1999/xlink" x="0px" y="0px"
	 width="1000px" height="795.495px" viewBox="0 0 1000 795.495" enable-background="new 0 0 1000 795.495" xml:space="preserve">
<g>
	<g>
		<path d="M147.141,780.971c-3.073-0.26-6.247-0.377-9.539-0.352l-115.335,1.013c-1.574,0.008-3.073,0.025-4.506,0.034
			c-2.429,0.167-4.824,0.402-7.177,0.712c-2.353,0.31-4.606,0.678-6.742,1.131c0.41-1.717,0.687-3.576,0.804-5.586
			c0.126-2.002,0.184-3.995,0.167-6.005l-0.025-2.571l-0.017-1.926c-0.017-1.717-0.1-3.358-0.26-4.933
			c-0.151-1.566-0.595-2.998-1.323-4.271c2.144-0.31,4.279-1.038,6.415-2.203s4.547-2.755,7.244-4.782
			c0.285-0.285,0.611-0.544,0.963-0.762c0.352-0.209,0.745-0.461,1.172-0.754l74.81-50.825c5.108-3.475,10.694-6.984,16.732-10.544
			c6.046-3.551,10.284-5.845,12.696-6.867l-0.218-0.854c-3.71,0.603-8.71,1.147-14.991,1.633
			c-6.289,0.486-11.791,0.745-16.506,0.787l-70.104,0.611c-1.566,0.017-3.073,0.025-4.497,0.042
			c-2.429,0.159-4.824,0.402-7.177,0.703c-2.362,0.31-4.606,0.687-6.742,1.131c0.41-1.717,0.678-3.576,0.804-5.578
			c0.126-2.002,0.184-4.003,0.159-6.005l-0.017-1.935c-0.017-2.002-0.1-3.995-0.26-5.996c-0.159-2.002-0.469-3.861-0.913-5.569
			c2.872,0.544,5.837,0.946,8.911,1.206c3.082,0.26,6.256,0.377,9.547,0.352l115.335-1.013c3.291-0.025,6.465-0.193,9.539-0.511
			c3.073-0.31,6.03-0.77,8.885-1.365c-0.419,1.717-0.687,3.584-0.812,5.586c-0.126,2.002-0.176,4.003-0.159,6.005l0.008,1.499
			l0.017,1.926c0.017,1.717,0.1,3.358,0.26,4.933s0.595,2.998,1.323,4.271c-2.144,0.31-4.279,1.038-6.415,2.203
			c-2.127,1.164-4.547,2.755-7.244,4.782l-2.127,1.516l-74.81,51.47l-3.191,2.169c-4.975,3.333-10.058,6.524-15.25,9.564
			c-5.192,3.048-8.852,5.083-10.987,6.105l0.218,0.636c3.718-0.603,8.71-1.147,14.999-1.625c6.281-0.486,11.783-0.754,16.498-0.796
			l70.104-0.611l1.29-0.008c2.998-0.025,5.929-0.193,8.785-0.502c2.856-0.31,5.636-0.762,8.349-1.365
			c-0.419,1.725-0.687,3.584-0.812,5.586c-0.126,2.002-0.176,4.003-0.159,6.005l0.017,2.144c0.017,2.002,0.109,4.003,0.268,5.996
			c0.159,2.002,0.461,3.861,0.904,5.569C153.188,781.632,150.223,781.23,147.141,780.971z"/>
		<path d="M147.267,618.035c-5.175,7.839-12.252,13.793-21.255,17.871c-8.994,4.07-19.203,5.837-30.626,5.284
			c-11.415-0.544-21.447-3.283-30.082-8.207s-15.217-11.532-19.756-19.839c-4.539-8.299-6.557-17.662-6.055-28.08
			c0.494-10.426,3.4-19.513,8.71-27.276c5.309-7.755,12.503-13.667,21.565-17.737c9.07-4.078,19.32-5.837,30.735-5.284
			c11.423,0.544,21.414,3.249,29.981,8.09c8.567,4.849,15.049,11.423,19.446,19.714c4.397,8.299,6.34,17.662,5.837,28.08
			C155.273,601.068,152.434,610.205,147.267,618.035z M128.005,565.493c-7.135-6.356-16.917-9.832-29.336-10.426
			c-7.989-0.385-15.091,0.67-21.297,3.157c-6.197,2.496-11.021,6.164-14.48,11.004c-3.45,4.849-5.326,10.41-5.628,16.69
			c-0.469,9.706,2.764,17.804,9.673,24.286c6.917,6.482,16.439,10.016,28.574,10.602c12.42,0.595,22.486-1.96,30.199-7.671
			c7.721-5.711,11.817-13.491,12.286-23.34C138.473,579.947,135.14,571.841,128.005,565.493z"/>
		<path d="M154.536,521.317c-3.04-0.503-6.206-0.871-9.488-1.105L69.35,514.76c-1.281-0.092-2.563-0.184-3.844-0.276
			c-2.579-0.042-5.083-0.008-7.529,0.109c-2.445,0.109-4.824,0.293-7.135,0.561c0.544-1.683,0.971-3.517,1.256-5.502
			s0.494-3.97,0.645-5.971l-0.034,0.427c0.142-1.993,0.218-3.995,0.218-6.005c0-2.002-0.151-3.877-0.461-5.619
			c2.529,0.754,5.067,1.365,7.612,1.834c2.546,0.477,4.958,0.787,7.236,0.955l1.281,0.092l0.234-0.201
			c-4.104-2.73-7.872-7.118-11.306-13.173c-3.434-6.046-4.841-13.424-4.212-22.117c0.502-6.984,2.554-13.106,6.155-18.365
			c3.601-5.251,8.475-9.204,14.614-11.842c6.13-2.638,13.048-3.685,20.752-3.132l56.662,4.078l0.218,0.017
			c3.274,0.234,6.423,0.318,9.438,0.243c3.015-0.067,5.963-0.285,8.86-0.645c-0.553,1.675-0.971,3.509-1.256,5.494
			c-0.293,1.985-0.502,3.978-0.645,5.971c-0.142,2.002-0.218,4.003-0.218,6.005c0,2.01,0.151,3.877,0.452,5.619
			c-2.805-0.77-5.737-1.415-8.777-1.918c-3.048-0.502-6.206-0.879-9.488-1.114l-51.537-3.71c-7.981-0.569-14.53,0.854-19.647,4.288
			c-5.117,3.425-7.931,8.559-8.416,15.401c-0.62,8.559,1.415,15.652,6.097,21.288c4.681,5.644,10.87,8.735,18.566,9.296
			l51.319,3.685l0.218,0.017c3.283,0.243,6.423,0.327,9.438,0.251c3.015-0.067,5.971-0.285,8.86-0.653
			c-0.553,1.683-0.971,3.517-1.256,5.502c-0.285,1.985-0.502,3.978-0.645,5.971c-0.142,1.993-0.218,3.995-0.218,6.005
			c0,2.002,0.151,3.877,0.461,5.619C160.507,522.473,157.584,521.828,154.536,521.317z"/>
		<path d="M160.314,405.061c-3.149-0.276-6.298-0.385-9.447-0.31l-115.301,2.78c-1.574,0.042-3.073,0.075-4.506,0.109
			c-2.42,0.209-4.815,0.477-7.16,0.821c-2.353,0.343-4.598,0.754-6.725,1.231c0.385-1.725,0.628-3.584,0.72-5.594
			c0.092-2.002,0.117-4.003,0.067-6.005v-0.209c-0.05-2.002-0.167-4.003-0.36-5.996c-0.193-2.002-0.519-3.852-0.997-5.552
			c2.881,0.502,5.854,0.854,8.927,1.072c3.082,0.209,6.264,0.276,9.547,0.193l16.079-0.385c0.285-0.008,0.569-0.017,0.854-0.017
			c3.149-0.084,6.222-0.05,9.229,0.092c2.998,0.142,5.938,0.327,8.802,0.544l0.201-0.653c-4.372-3.182-8.157-7.663-11.373-13.45
			c-3.207-5.778-4.908-12.386-5.083-19.823c-0.176-7.286,1.306-13.785,4.455-19.513c3.157-5.72,7.621-10.225,13.399-13.517
			c5.787-3.274,12.461-5.016,20.032-5.201l57.014-1.373c1.432-0.034,2.931-0.067,4.506-0.109c2.42-0.193,4.807-0.469,7.16-0.812
			c2.353-0.343,4.589-0.754,6.725-1.239c-0.385,1.725-0.628,3.593-0.72,5.594c-0.1,2.01-0.117,4.011-0.075,6.013l0.008,0.209
			c0.05,2.002,0.167,4.003,0.36,5.996c0.184,2.002,0.519,3.852,0.988,5.552c-2.864-0.502-5.845-0.854-8.919-1.072
			c-3.082-0.209-6.264-0.276-9.555-0.201L96.45,335.51c-7.721,0.184-13.843,2.445-18.391,6.775
			c-4.539,4.321-6.733,9.773-6.574,16.347c0.184,7.571,2.772,14.086,7.763,19.538c4.991,5.46,11.992,8.081,20.987,7.864
			l50.155-1.214l2.362-0.059c2.856-0.209,5.636-0.486,8.341-0.837c2.705-0.352,5.268-0.77,7.688-1.265
			c-0.385,1.725-0.628,3.593-0.72,5.594c-0.1,2.01-0.117,4.011-0.075,6.013l0.008,0.209c0.05,2.002,0.167,4.003,0.36,5.996
			c0.193,2.002,0.519,3.852,0.988,5.552l0.008,0.218C166.478,405.739,163.472,405.346,160.314,405.061z"/>
		<path d="M162.282,286.209c-4.723,4.589-10.234,7.52-16.548,8.777c-6.306,1.265-13.115,0.662-20.434-1.809l-56.059-18.935
			c-1.214-0.41-2.362-0.796-3.45-1.164c-2.487-0.687-4.958-1.29-7.42-1.826c-2.454-0.528-4.841-0.955-7.144-1.281
			c0.955-1.491,1.817-3.157,2.596-5.008c0.779-1.851,1.482-3.718,2.119-5.619l0.276-0.812c0.645-1.893,1.214-3.81,1.717-5.753
			c0.511-1.943,0.829-3.794,0.971-5.552c2.529,1.457,5.201,2.805,8.023,4.062c2.822,1.256,5.787,2.412,8.902,3.459l53.011,17.905
			c7.177,2.429,13.249,2.437,18.206,0.042c4.958-2.404,8.55-6.917,10.795-13.55c2.563-7.587,2.186-14.505-1.139-20.752
			c-3.316-6.247-8.902-10.703-16.758-13.357L91.4,208.635l-1.625-0.544c-2.889-0.829-5.72-1.591-8.5-2.303
			c-2.772-0.712-5.402-1.189-7.889-1.424c0.955-1.491,1.817-3.157,2.596-5.008c0.77-1.851,1.482-3.718,2.119-5.619l0.067-0.201
			c0.645-1.893,1.214-3.81,1.725-5.753c0.502-1.943,0.821-3.794,0.963-5.561c2.529,1.457,5.201,2.814,8.023,4.07
			c2.822,1.256,5.787,2.404,8.902,3.459l71.904,24.278c1.357,0.461,2.772,0.938,4.263,1.449c2.353,0.645,4.681,1.206,7.01,1.683
			c2.328,0.486,4.573,0.871,6.742,1.147c-0.955,1.491-1.826,3.157-2.596,5.008c-0.779,1.851-1.482,3.718-2.119,5.619
			c-0.645,1.893-1.214,3.81-1.725,5.753c-0.502,1.943-0.821,3.794-0.963,5.552c-1.985-1.265-4.053-2.42-6.197-3.442
			c-2.144-1.03-4.087-1.842-5.854-2.437l-0.812-0.268l-1.424-0.486c4.053,4.087,6.842,9.137,8.349,15.158
			c1.507,6.013,1.055,12.612-1.365,19.789C170.573,275.732,166.997,281.62,162.282,286.209z"/>
		<path d="M181.737,198.786c-0.77-2.99-1.708-6.03-2.822-9.12l-25.66-71.427c-0.528-1.482-1.038-2.889-1.524-4.238
			c-0.955-2.236-1.968-4.422-3.032-6.541c-1.064-2.127-2.161-4.12-3.291-5.996c1.759-0.176,3.601-0.528,5.536-1.072
			s3.836-1.156,5.72-1.834l-0.402,0.151c1.884-0.678,3.743-1.424,5.577-2.236c1.834-0.804,3.484-1.708,4.958-2.688
			c0.117,1.172,0.477,3.015,1.08,5.536c0.402,1.985,0.863,3.903,1.382,5.762c0.519,1.868,1.114,3.743,1.792,5.628l0.201-0.075
			c1.466-6.909,4.204-12.821,8.207-17.754c3.995-4.933,9.631-8.701,16.892-11.306c6.457-2.32,12.738-2.604,18.834-0.846
			c6.097,1.759,11.013,5.083,14.739,9.966l0.41-0.142c1.239-6.675,4.062-12.771,8.458-18.307
			c4.388-5.519,10.284-9.614,17.687-12.277c6.18-2.219,12.185-2.856,17.989-1.901c5.812,0.946,11.021,3.517,15.644,7.705
			c4.614,4.187,8.182,9.782,10.694,16.774l20.149,56.093c1.114,3.09,2.32,6.038,3.626,8.827c1.315,2.805,2.713,5.443,4.221,7.939
			c-1.759,0.176-3.601,0.536-5.536,1.08c-1.935,0.544-3.836,1.156-5.72,1.826l0.201-0.067c-1.884,0.67-3.743,1.415-5.577,2.228
			s-3.484,1.708-4.958,2.688c-0.427-2.881-1.03-5.812-1.792-8.802c-0.77-2.99-1.708-6.03-2.822-9.128l-18.483-51.445
			c-2.563-7.127-6.206-12.085-10.929-14.873c-4.715-2.78-10.108-3.09-16.155-0.913c-7.135,2.563-12.118,7.085-14.949,13.567
			c-2.831,6.49-2.772,13.835,0.176,22.034l16.959,47.216l0.067,0.201c1.114,3.099,2.311,6.005,3.593,8.735
			c1.29,2.73,2.68,5.343,4.187,7.839c-1.759,0.176-3.609,0.536-5.536,1.072c-1.935,0.544-3.844,1.156-5.72,1.834l0.201-0.075
			c-1.884,0.678-3.743,1.424-5.577,2.228c-1.842,0.812-3.492,1.708-4.958,2.697c-0.427-2.881-1.03-5.82-1.801-8.81
			c-0.77-2.99-1.708-6.03-2.822-9.12l-18.985-52.869c-2.462-6.859-5.946-11.565-10.435-14.128
			c-4.489-2.563-9.957-2.688-16.414-0.368c-6.867,2.462-11.699,7.085-14.496,13.86c-2.805,6.783-2.688,14.404,0.36,22.879
			l16.598,46.203l0.067,0.209c1.114,3.09,2.311,6.005,3.593,8.726c1.281,2.73,2.68,5.343,4.187,7.839
			c-1.759,0.176-3.576,0.519-5.435,1.047c-1.868,0.511-3.743,1.114-5.628,1.784l-0.402,0.151c-1.884,0.678-3.71,1.407-5.477,2.194
			c-1.767,0.787-3.383,1.675-4.849,2.655C183.102,204.716,182.507,201.776,181.737,198.786z"/>
		<path d="M361.656,166.687c-5.787-2.261-10.435-5.921-13.935-10.962c-3.509-5.05-5.368-11.356-5.594-18.927
			c-0.285-9.857,2.78-17.595,9.195-23.214c6.415-5.619,15.61-9.313,27.569-11.096l20.074-2.931
			c5.268-0.729,9.162-2.052,11.683-3.986c2.512-1.935,3.718-4.757,3.618-8.467c-0.176-6.005-2.236-10.518-6.189-13.55
			c-3.944-3.032-9.639-4.439-17.059-4.229c-6.574,0.193-11.959,1.951-16.155,5.293c-4.187,3.341-6.206,7.864-6.038,13.584
			c0.008,0.427,0.017,0.712,0.025,0.854c0,0.142,0.008,0.427,0.025,0.854l-0.218,0.008c-1.583-0.385-3.233-0.62-4.949-0.712
			c-1.717-0.092-3.367-0.117-4.941-0.075l-0.636,0.017c-1.574,0.05-3.216,0.167-4.924,0.36c-1.708,0.193-3.35,0.528-4.908,0.997
			l-0.209,0.008c0.126-0.435,0.184-0.829,0.176-1.189c-0.008-0.352-0.017-0.745-0.034-1.172c-0.293-10.292,3.434-18.617,11.18-24.99
			c7.755-6.373,18.056-9.748,30.919-10.116c12.57-0.36,22.695,2.345,30.366,8.132c7.671,5.787,11.691,14.965,12.059,27.536
			l1.424,49.502c0.084,2.864,0.829,5.125,2.236,6.8c1.407,1.675,3.609,2.471,6.608,2.378c1.005-0.025,1.893-0.117,2.671-0.285
			c0.787-0.167,1.675-0.335,2.672-0.511l0.218,0.209c-0.243,1.583-0.444,3.09-0.62,4.522c-0.168,1.44-0.234,2.939-0.193,4.514
			l0.025,0.636c0.042,1.717,0.159,3.325,0.352,4.815c0.184,1.499,0.435,2.889,0.762,4.162l-0.209,0.218
			c-1.156-0.394-2.563-0.636-4.204-0.737c-1.65-0.092-3.258-0.117-4.824-0.075l-0.645,0.025c-5.293,0.151-9.756-1.005-13.399-3.475
			c-3.643-2.471-6.046-6.264-7.194-11.373c-3.14,5.092-7.872,9.589-14.195,13.491c-6.323,3.894-13.977,5.979-22.98,6.239
			C373.975,169.978,367.435,168.948,361.656,166.687z M399.61,148.003c5-2.571,8.869-6.046,11.607-10.41
			c2.73-4.372,4.028-9.128,3.877-14.27l-0.084-2.789c-0.151-5.142,0.1-8.936,0.745-11.389l-0.218,0.008
			c-1.524,1.616-4.053,3.124-7.587,4.506c-3.534,1.39-7.512,2.512-11.917,3.35l-15.778,3.032c-5.41,1.013-9.606,2.956-12.595,5.829
			c-2.998,2.881-4.43,6.39-4.305,10.527c0.151,5.293,2.119,9.271,5.921,11.951c3.794,2.68,8.333,3.944,13.617,3.785
			C389.033,151.956,394.61,150.582,399.61,148.003z"/>
		<path d="M468.306,158.153c0.167-3.082,0.193-6.264,0.067-9.547l-2.856-75.84c-0.05-1.29-0.1-2.571-0.151-3.861
			c-0.243-2.563-0.544-5.05-0.921-7.47c-0.385-2.42-0.829-4.765-1.34-7.035c1.734,0.368,3.593,0.586,5.603,0.653
			c2.002,0.067,4.003,0.059,6.005-0.017l-0.427,0.017c2.002-0.075,3.995-0.218,5.988-0.444c1.993-0.209,3.844-0.569,5.544-1.064
			c-0.477,2.596-0.812,5.184-0.997,7.763c-0.193,2.579-0.243,5.016-0.151,7.294l0.042,1.29l0.226,0.209
			c2.261-4.38,6.222-8.609,11.858-12.679c5.636-4.078,12.813-6.273,21.523-6.608c7.001-0.26,13.307,1.114,18.927,4.12
			c5.619,3.006,10.083,7.412,13.374,13.223s5.092,12.57,5.376,20.283l2.144,56.771l0.008,0.218c0.126,3.291,0.385,6.423,0.779,9.413
			c0.402,2.99,0.938,5.896,1.616,8.735c-1.725-0.368-3.593-0.586-5.603-0.653c-2.002-0.067-4.003-0.059-6.005,0.017
			c-2.002,0.075-3.995,0.218-5.988,0.435s-3.844,0.578-5.536,1.072c0.461-2.881,0.779-5.854,0.946-8.944
			c0.167-3.073,0.193-6.256,0.067-9.547l-1.943-51.629c-0.302-7.998-2.437-14.354-6.407-19.069c-3.97-4.707-9.38-6.943-16.23-6.683
			c-8.576,0.327-15.409,3.124-20.501,8.391c-5.092,5.268-7.495,11.758-7.202,19.471l1.943,51.42l0.008,0.209
			c0.117,3.291,0.377,6.423,0.779,9.413s0.938,5.904,1.616,8.735c-1.725-0.36-3.593-0.578-5.603-0.645
			c-2.002-0.067-4.003-0.067-6.005,0.008c-2.002,0.075-3.995,0.226-5.988,0.444c-2.002,0.218-3.844,0.569-5.544,1.064
			C467.812,164.216,468.131,161.235,468.306,158.153z"/>
		<path d="M665.461,150.591c0.536-3.04,0.93-6.197,1.189-9.48l8.358-104.934c0.025-0.276,0.042-0.494,0.059-0.636
			c0.117-1.566,0.268-2.956,0.435-4.162c0.167-1.198,0.452-2.504,0.846-3.911c-1.449,0.176-2.847,0.243-4.204,0.201
			c-1.365-0.033-2.898-0.117-4.606-0.26l-24.152-1.918c-3.274-0.268-6.457-0.377-9.539-0.335c-3.09,0.042-6.08,0.234-8.978,0.578
			c0.57-1.675,0.997-3.501,1.298-5.485c0.301-1.985,0.536-3.97,0.695-5.971l-0.034,0.427c0.159-1.993,0.243-3.995,0.26-5.996
			c0.017-2.01-0.117-3.886-0.41-5.628c2.805,0.796,5.728,1.457,8.768,1.985c3.04,0.536,6.197,0.93,9.472,1.189l86.56,6.901
			c3.274,0.26,6.457,0.368,9.539,0.327c3.09-0.042,6.08-0.234,8.978-0.578c-0.57,1.675-1.005,3.509-1.298,5.494
			c-0.31,1.985-0.536,3.97-0.695,5.963l0.034-0.427c-0.159,2.002-0.243,3.995-0.26,6.005c-0.017,2.002,0.117,3.877,0.41,5.619
			c-2.244-0.603-4.606-1.147-7.076-1.633c-2.471-0.486-4.983-0.904-7.537-1.248c-1.139-0.092-2.345-0.193-3.626-0.293l-24.37-1.943
			c-3.702-0.293-6.608-0.737-8.71-1.332c0.176,1.44,0.243,2.814,0.209,4.095c-0.025,1.29-0.109,2.722-0.234,4.288l-0.017,0.209
			l-0.017,0.218l-8.358,104.934c-0.26,3.274-0.377,6.457-0.327,9.539c0.034,3.09,0.226,6.08,0.57,8.978
			c-1.675-0.569-3.501-1.005-5.485-1.298c-1.985-0.301-3.978-0.536-5.971-0.695l-2.135-0.167c-1.993-0.159-3.995-0.251-5.996-0.26
			c-2.01-0.025-3.886,0.117-5.628,0.41C664.272,156.553,664.933,153.631,665.461,150.591z"/>
		<path d="M728.965,161.352c-5.335-7.546-8.224-16.188-8.659-25.928c-0.444-9.74,1.625-19.998,6.206-30.785
			c4.698-11.054,10.92-19.664,18.675-25.844c7.746-6.18,16.196-9.807,25.358-10.887c9.153-1.08,18.198,0.276,27.142,4.078
			c9.472,4.028,16.598,9.656,21.364,16.883c4.773,7.227,7.185,15.518,7.261,24.864c0.059,9.346-2.085,19.153-6.44,29.412
			c-1.03,2.043-2.06,4.095-3.082,6.147l-83.068-35.299l6.708-15.786l72.021,30.601l-8.475-0.343
			c3.961-9.338,4.815-17.829,2.554-25.467c-2.27-7.638-7.42-13.165-15.443-16.573c-6.306-2.688-12.344-3.383-18.089-2.102
			c-5.753,1.29-10.912,4.296-15.485,9.028c-4.573,4.74-8.45,10.853-11.641,18.349c-5.418,12.763-6.867,23.566-4.33,32.401
			c2.529,8.844,8.592,15.3,18.198,19.387c4.338,1.842,8.601,2.68,12.788,2.521c4.187-0.167,7.989-1.265,11.423-3.3
			c3.425-2.043,6.264-4.983,8.525-8.844l0.285-0.109c1.332,0.879,2.73,1.7,4.187,2.479c1.457,0.77,2.973,1.499,4.556,2.169
			c1.708,0.72,3.341,1.34,4.916,1.851c1.566,0.519,3.132,0.946,4.69,1.298l0.117,0.276c-0.226,0.528-1.516,2.471-3.869,5.812
			c-0.603,0.678-1.231,1.424-1.876,2.236c-6.423,7.051-14.279,11.482-23.583,13.274c-9.304,1.792-19.278,0.427-29.939-4.104
			C741.963,174.802,734.3,168.898,728.965,161.352z"/>
		<path d="M809.73,210.017c-0.536-6.189,0.678-11.976,3.651-17.352c2.965-5.376,7.797-9.84,14.488-13.399
			c8.71-4.623,17-5.309,24.881-2.052c7.88,3.258,15.275,9.857,22.168,19.781l11.54,16.691c2.981,4.405,5.896,7.311,8.743,8.71
			c2.847,1.399,5.912,1.231,9.195-0.519c5.301-2.814,8.433-6.666,9.405-11.549c0.963-4.882-0.293-10.611-3.777-17.168
			c-3.09-5.804-7.06-9.848-11.909-12.126s-9.807-2.077-14.848,0.603c-0.377,0.201-0.636,0.343-0.762,0.402
			c-0.126,0.067-0.377,0.201-0.754,0.402l-0.101-0.184c-0.36-1.591-0.879-3.174-1.558-4.757s-1.382-3.065-2.127-4.455l-0.301-0.569
			c-0.737-1.39-1.566-2.805-2.496-4.254c-0.938-1.449-1.96-2.764-3.073-3.953l-0.1-0.184c0.444-0.084,0.829-0.201,1.139-0.368
			c0.318-0.167,0.662-0.352,1.047-0.553c9.086-4.824,18.206-5.184,27.351-1.055c9.145,4.12,16.741,11.858,22.779,23.223
			c5.896,11.105,7.956,21.38,6.18,30.818c-1.784,9.447-8.232,17.118-19.337,23.022L867.422,262.4
			c-2.529,1.34-4.229,3.015-5.109,5.016c-0.871,2.002-0.611,4.33,0.796,6.984c0.469,0.879,0.955,1.633,1.449,2.261
			c0.494,0.628,1.038,1.348,1.633,2.169l-0.084,0.293c-1.524,0.477-2.965,0.963-4.33,1.449c-1.365,0.477-2.739,1.089-4.129,1.826
			l-0.57,0.301c-1.507,0.804-2.898,1.625-4.154,2.454c-1.265,0.829-2.395,1.667-3.392,2.529l-0.293-0.092
			c-0.159-1.214-0.553-2.579-1.198-4.095c-0.645-1.516-1.34-2.973-2.077-4.355l-0.302-0.569c-2.479-4.673-3.425-9.187-2.831-13.55
			c0.595-4.363,2.931-8.199,7.01-11.49c-5.963-0.561-12.093-2.805-18.391-6.742c-6.298-3.936-11.565-9.882-15.786-17.829
			C812.251,222.52,810.274,216.206,809.73,210.017z M843.312,235.76c4.522,3.333,9.354,5.259,14.48,5.778
			c5.134,0.511,9.966-0.435,14.513-2.856l2.462-1.306c4.539-2.412,8.048-3.877,10.535-4.38l-0.1-0.193
			c-2.127-0.653-4.598-2.253-7.411-4.807c-2.814-2.546-5.578-5.611-8.282-9.187l-9.715-12.805
			c-3.308-4.397-6.909-7.294-10.812-8.701c-3.903-1.407-7.688-1.139-11.348,0.804c-4.665,2.487-7.361,6.013-8.081,10.611
			c-0.72,4.581,0.167,9.212,2.646,13.885C835.08,228.031,838.781,232.419,843.312,235.76z"/>
		<path d="M848.613,310.914c3.978-7.956,10.276-14.329,18.876-19.111c8.609-4.782,19.186-7.537,31.748-8.249
			c11.557-0.653,21.816,1.047,30.777,5.125c8.969,4.07,16.037,10.041,21.204,17.905c5.175,7.864,8.048,16.933,8.634,27.209
			c0.494,8.701-1.03,16.557-4.564,23.558c-3.542,7.001-8.71,12.411-15.501,16.238c-1.114,0.628-2.295,1.198-3.559,1.7
			c-2.236,0.988-4.547,1.801-6.943,2.437c-2.404,0.636-4.949,1.105-7.654,1.399l-0.226-0.201c0.209-1.298,0.335-2.881,0.377-4.74
			c0.034-1.868,0.008-3.584-0.075-5.15c-0.092-1.574-0.268-3.283-0.511-5.125c-0.251-1.851-0.553-3.408-0.913-4.673l0.209-0.226
			c1.993-0.117,3.869-0.402,5.636-0.863c1.767-0.452,3.484-1.089,5.159-1.901c3.743-2.077,6.582-5.025,8.509-8.86
			c1.935-3.827,2.755-8.174,2.487-13.022c-0.553-9.706-4.681-17.344-12.369-22.921c-7.688-5.569-17.528-8.023-29.512-7.336
			c-12.269,0.695-21.966,4.003-29.068,9.915c-7.11,5.921-10.393,13.659-9.849,23.214c0.335,5.854,1.893,10.669,4.69,14.446
			c2.789,3.777,6.599,6.532,11.423,8.266c2.043,0.737,4.221,1.256,6.532,1.558c2.303,0.301,4.74,0.377,7.311,0.226l0.226,0.201
			c-0.201,1.591-0.318,3.207-0.368,4.857c-0.05,1.641-0.034,3.258,0.059,4.824c0.092,1.574,0.26,3.283,0.502,5.125
			c0.251,1.851,0.553,3.408,0.913,4.673l-0.201,0.226c-2.713,0.159-5.36,0.126-7.948-0.084c-2.588-0.209-5.192-0.603-7.797-1.164
			c-0.871-0.243-1.566-0.419-2.069-0.528c-0.511-0.117-1.198-0.293-2.077-0.528c-8.45-2.671-15.275-7.504-20.467-14.513
			c-5.192-7.001-8.107-15.928-8.718-26.774C842.918,327.914,844.627,318.87,848.613,310.914z"/>
		<path d="M854.023,400.807c3.14,0.385,6.281,0.603,9.43,0.636l115.335,1.206c1.566,0.017,3.073,0.033,4.497,0.05
			c2.437-0.117,4.832-0.31,7.194-0.569s4.614-0.595,6.758-1.005c-0.444,1.717-0.754,3.568-0.913,5.569
			c-0.167,2.002-0.251,3.995-0.276,5.996v0.218c-0.025,2.002,0.025,4.003,0.151,6.005c0.117,2.002,0.385,3.861,0.796,5.586
			c-2.856-0.603-5.812-1.064-8.877-1.382c-3.073-0.318-6.256-0.494-9.539-0.528l-16.079-0.168c-0.285-0.008-0.569-0.008-0.854-0.008
			c-3.149-0.034-6.222-0.176-9.22-0.419c-2.998-0.251-5.921-0.528-8.777-0.846l-0.226,0.645c4.254,3.325,7.889,7.939,10.895,13.835
			c3.015,5.887,4.48,12.553,4.405,19.982c-0.075,7.294-1.792,13.734-5.134,19.354c-3.35,5.611-7.973,9.957-13.86,13.039
			c-5.896,3.082-12.629,4.581-20.2,4.506l-57.023-0.603c-1.432-0.008-2.931-0.025-4.506-0.042c-2.437,0.117-4.824,0.301-7.185,0.569
			c-2.362,0.26-4.623,0.595-6.767,0.997c0.444-1.708,0.754-3.568,0.913-5.561c0.167-2.002,0.26-4.003,0.276-6.005l0.008-0.209
			c0.017-2.01-0.034-4.003-0.151-6.005c-0.126-2.01-0.394-3.869-0.804-5.586c2.856,0.595,5.812,1.055,8.885,1.382
			c3.065,0.31,6.247,0.494,9.539,0.528l52.735,0.553c7.713,0.075,13.919-1.968,18.608-6.13c4.69-4.171,7.068-9.539,7.135-16.113
			c0.084-7.579-2.278-14.178-7.076-19.798c-4.807-5.628-11.708-8.483-20.71-8.584l-50.164-0.528l-2.362-0.017
			c-2.856,0.109-5.653,0.293-8.366,0.553c-2.722,0.251-5.293,0.586-7.73,0.988c0.452-1.708,0.754-3.568,0.921-5.561
			c0.159-2.002,0.251-4.003,0.276-6.005v-0.209c0.025-2.01-0.025-4.003-0.151-6.005c-0.117-2.01-0.385-3.869-0.804-5.586
			l0.008-0.218C847.884,399.919,850.883,400.413,854.023,400.807z"/>
		<path d="M849.182,535.721c4.933-7.814,11.817-13.785,20.652-17.913c8.827-4.129,19.102-6.139,30.827-6.021
			c12.001,0.117,22.335,2.579,31.011,7.386c8.668,4.799,15.25,11.222,19.747,19.278c4.497,8.048,6.691,16.925,6.599,26.648
			c-0.101,10.292-2.588,19.019-7.445,26.187c-4.857,7.169-11.59,12.57-20.208,16.205c-8.609,3.626-18.491,5.393-29.638,5.284
			c-2.286-0.167-4.573-0.335-6.859-0.502l0.896-90.253l17.151,0.168l-0.779,78.252l-2.923-7.964
			c10.15,0.101,18.324-2.353,24.521-7.37c6.189-5.008,9.338-11.875,9.421-20.593c0.067-6.859-1.591-12.704-4.974-17.52
			c-3.383-4.824-8.132-8.442-14.254-10.862c-6.122-2.42-13.257-3.668-21.405-3.752c-13.86-0.134-24.395,2.655-31.597,8.366
			c-7.211,5.72-10.862,13.793-10.962,24.228c-0.042,4.715,0.804,8.978,2.554,12.78c1.75,3.81,4.221,6.909,7.411,9.296
			c3.191,2.395,7.001,3.894,11.423,4.505l0.218,0.218c-0.31,1.574-0.536,3.174-0.695,4.824c-0.159,1.633-0.243,3.316-0.26,5.033
			c-0.025,1.851,0.034,3.609,0.159,5.251s0.327,3.258,0.595,4.832l-0.218,0.209c-0.57,0-2.856-0.452-6.842-1.348
			c-0.854-0.301-1.784-0.595-2.78-0.888c-8.978-3.233-16.071-8.81-21.28-16.724c-5.201-7.914-7.755-17.654-7.638-29.227
			C841.721,552.864,844.241,543.526,849.182,535.721z"/>
		<path d="M850.33,632.933c3.057,0.368,6.231,0.603,9.522,0.695l75.865,2.144l1.072,0.025c3.141,0.092,6.113,0.034,8.902-0.176
			c2.797-0.209,5.628-0.561,8.5-1.047c-0.477,1.7-0.812,3.551-1.013,5.544c-0.201,2.002-0.327,3.995-0.385,5.996l0.017-0.427
			c-0.059,2.002-0.042,4.003,0.042,6.005c0.084,2.002,0.318,3.869,0.703,5.594c-0.712-0.159-1.491-0.327-2.345-0.494
			c-1.993-0.343-4.129-0.687-6.407-1.038c-2.278-0.352-4.489-0.553-6.633-0.611l-3.425-0.1l-0.234,0.636
			c3.534,1.39,6.825,3.735,9.882,7.035c3.048,3.308,5.443,7.194,7.177,11.682c1.734,4.472,2.529,9.145,2.395,14.002l-0.017,0.645
			c-0.034,0.997,0.008,2.11,0.117,3.325c0.109,1.223,0.368,2.27,0.77,3.132l-0.218,0.209c-1.708-0.477-3.45-0.812-5.226-1.005
			c-1.792-0.193-3.609-0.318-5.46-0.369l-0.218-0.008c-2.144-0.059-4.07-0.042-5.795,0.059c-1.717,0.092-3.651,0.251-5.804,0.477
			l-0.201-0.218c0.318-1.281,0.569-2.672,0.754-4.162c0.184-1.499,0.302-2.965,0.343-4.388c0.268-9.572-2.203-17.151-7.403-22.729
			c-5.209-5.586-12.386-8.5-21.523-8.76l-44.787-1.256l-1.29-0.042c-2.998-0.084-5.938-0.025-8.802,0.184
			c-2.864,0.201-5.661,0.553-8.391,1.047c0.477-1.7,0.821-3.551,1.013-5.544c0.201-2.002,0.327-3.995,0.385-5.996
			c0.059-2.002,0.042-4.003-0.042-6.005c-0.084-2.01-0.327-3.869-0.703-5.594C844.308,632.046,847.265,632.556,850.33,632.933z"/>
		<path d="M843.823,716.888c5.619-8.09,13.182-13.525,22.678-16.305c0.72-0.276,1.801-0.536,3.233-0.787
			c1.147-0.26,2.37-0.444,3.66-0.561c1.29-0.109,2.579-0.226,3.869-0.335l0.209,0.218c-0.327,1.566-0.578,3.241-0.762,5.025
			c-0.184,1.775-0.293,3.601-0.335,5.46c-0.05,1.851-0.017,3.676,0.084,5.469c0.101,1.792,0.276,3.467,0.528,5.05l-0.218,0.209
			c-2.01,0.092-3.869,0.343-5.594,0.729c-1.725,0.394-3.383,0.997-4.974,1.817c-4.338,2.186-7.78,5.611-10.318,10.267
			c-2.537,4.665-3.869,9.849-4.003,15.56c-0.167,7.294,1.122,13.039,3.886,17.252c2.764,4.204,6.716,6.373,11.858,6.49
			c5.284,0.126,9.48-1.817,12.579-5.82c3.09-4.003,5.31-10.426,6.658-19.253l2.018-12.821c1.507-9.832,4.899-17.402,10.175-22.712
			c5.268-5.31,12.185-7.864,20.761-7.671c6.289,0.151,11.884,2.102,16.808,5.862c4.916,3.76,8.651,8.952,11.222,15.594
			c2.554,6.633,3.743,14.161,3.551,22.595c-0.243,10.577-2.697,19.203-7.353,25.886c-4.665,6.683-10.954,11.289-18.868,13.826
			c-1.013,0.26-2.018,0.519-3.023,0.787c-1.156,0.26-2.37,0.511-3.668,0.77c-1.29,0.26-2.579,0.444-3.869,0.553l-0.209-0.218
			c0.318-1.566,0.569-3.166,0.754-4.807c0.176-1.641,0.293-3.249,0.327-4.815c0.034-1.574,0-3.258-0.1-5.042
			c-0.101-1.792-0.276-3.542-0.519-5.268l0.218-0.209c2.002,0.184,3.861,0.092,5.586-0.301c1.725-0.385,3.308-1.064,4.765-2.035
			c3.182-1.926,5.678-4.69,7.478-8.291c1.801-3.609,2.755-7.839,2.872-12.696c0.159-7.001-1.105-12.537-3.802-16.598
			c-2.697-4.07-6.256-6.155-10.686-6.256c-3.718-0.084-6.742,1.022-9.078,3.333c-2.345,2.303-4.011,6.231-4.991,11.783
			l-3.199,17.511c-1.968,11.247-5.862,20.166-11.657,26.748c-5.804,6.582-13.919,9.756-24.345,9.522
			c-10.577-0.251-18.801-4.589-24.688-13.014c-5.879-8.425-8.668-19.211-8.358-32.359
			C835.255,735.028,838.203,724.978,843.823,716.888z"/>
	</g>
	<g>
		<path d="M555.626,574.957c-3.645,3.17-7.513,5.217-9.252,8.419c-1.722,3.17-0.971,7.591-1.933,11.3
			c-0.599,2.308-1.896,4.898-3.697,6.34c-4.522,3.621-4.384,9.379-7.14,13.723c-1.574,2.482-3.443,4.775-5.146,7.177
			c-0.917,1.293-1.625,2.761-2.67,3.933c-3.06,3.427-5.994,7.03-9.446,10.024c-3.379,2.932-4.198,5.618-1.84,9.601
			c2.384,4.029,5.091,2.154,7.956,0.726c0.216,0.309,0.432,0.617,0.648,0.926c-1.22,1.215-2.232,2.955-3.702,3.535
			c-3.089,1.22-3.281,3.448-2.343,5.78c2.69,6.682,2.426,13.205,0.667,20.132c-2.042,8.042-2.738,16.424-4.725,24.484
			c-1.23,4.989-3.833,9.631-5.688,14.48c-0.497,1.298-0.151,3.002-0.841,4.119c-0.717,1.16-2.221,1.834-3.38,2.72
			c0.396,0.157,0.791,0.314,1.187,0.471c-2.018,4.607-4.08,9.195-6.02,13.835c-0.436,1.044-0.322,2.306-0.676,3.398
			c-0.626,1.93-1.128,3.994-2.209,5.66c-1.468,2.264-0.595,3.915,3.587,5.459c-2.952,5.581,2.428,7.192,5.24,8.978
			c5.157,3.275,5.953,8.705,8.245,13.349c1.355,2.745-4.773,11.808-7.917,12.455c-0.632,0.13-1.724,0.002-1.998-0.41
			c-3.015-4.539-5.784-9.246-8.883-13.725c-2.088-3.017-4.059-6.735-7.049-8.355c-3.993-2.163-5.62-4.952-6.275-9.008
			c-0.521-3.227-1.273-6.417-2.003-10.018c4.626,0.299,4.654-3.019,5.626-6.357c1.861-6.385,4.138-12.744,7.107-18.683
			c2.528-5.057,4.767-9.756,5.176-15.682c0.354-5.133,3.595-10,4.712-15.169c0.924-4.273,3.081-9.082-1.38-13.035
			c-0.329-0.292,0.164-1.834,0.61-2.6c0.58-0.997,1.706-1.689,2.231-2.702c2.428-4.679,4.223-9.377-2.54-13.959
			c0.538,2.305,1.017,3.84,1.225,5.412c0.171,1.294,0.469,2.872-0.082,3.898c-1.188,2.211-2.823,4.198-4.392,6.185
			c-1.751,2.217-3.129,4.29-0.878,7.107c0.349,0.436-0.656,2.901-1.314,3.034c-3.148,0.632-6.386,0.93-9.604,1.065
			c-3.561,0.15-5.609-1.387-5.443-5.349c0.065-1.547-0.627-3.128-0.994-4.689c-0.165-0.704-0.763-1.629-0.505-2.057
			c1.693-2.807,2.972-6.484,5.51-8.025c4.614-2.802,5.918-6.765,6.647-11.448c0.557-3.572,1.332-6.627,5.39-8.476
			c1.664-0.758,3.07-5.103,2.462-7.197c-1.255-4.315-3.758-8.324-6.096-12.251c-2.02-3.392-4.085-6.37-4.998-10.607
			c-1.378-6.394-4.374-12.658-7.78-18.315c-2.112-3.507-6.524-5.542-9.43-8.676c-5.779-6.233-11.231-12.769-17.5-19.962
			c-0.948,2.626-2.103,5.071-2.702,7.645c-1.237,5.311-2.176,10.691-3.243,16.042c-0.058,0.292-0.266,0.591-0.225,0.859
			c1.544,9.944-5.539,17.322-7.602,26.142c-0.632,2.703,0.616,6.38,2.16,8.903c1.455,2.379,0.98,3.471-1.038,3.943
			c-4.437,1.038-3.912,4.211-3.58,7.33c0.36,3.388,0.951,6.75,1.331,10.136c0.093,0.829,0.07,2.09-0.433,2.503
			c-7.561,6.21-12.226,14.901-18.829,21.952c-2.838,3.031-3.801,7.734-6.281,11.203c-3.647,5.101-8.747,9.129-10.433,15.658
			c-0.328,1.268-2.943,1.847-4.32,2.969c-1.551,1.264-2.736,3.019-4.376,4.119c-1.432,0.96-3.239,1.651-4.948,1.836
			c-2.17,0.234-4.407-0.161-6.616-0.287c-3.282-0.187-6.587,0.005-7.492-4.521c-0.702-3.511-1.24-7.103-6.176-8.155
			c-1.797-0.383-2.925-4.152-4.25-6.439c-1.232-2.126-2.251-4.376-3.488-6.498c-1.241-2.13-2.32-4.498-4.043-6.169
			c-2.13-2.066-4.853-3.521-7.418-5.308c2.125-9.094,2.299-18.509-0.518-27.786c-1.724-5.679-3.954-11.205-5.957-16.799
			c-0.201-0.562-0.59-1.126-0.582-1.685c0.127-8.65-2.218-16.679-6.017-24.353c-0.065-0.131-0.163-0.345-0.108-0.423
			c3.206-4.503-0.275-9.48,1.003-14.198c0.593-2.19,0.02-4.708-0.094-7.075c-0.241-4.982-0.511-9.962-0.811-14.94
			c-0.059-0.98-0.304-1.949-0.575-3.61c-5.757,2.779-10.843,6.265-12.902,11.492c-3.588,9.108-9.472,16.368-15.561,23.649
			c-0.383,0.458-1.003,0.894-1.078,1.404c-1.067,7.202-7.737,10.57-11.011,16.241c-0.647,1.121-1.006,2.424-1.386,3.678
			c-0.385,1.269-0.263,2.861-1,3.825c-3.7,4.843-7.356,9.764-11.518,14.198c-3.908,4.164-3.84,8.253,0.931,11.087
			c-3.133,6.481-0.5,11.925,6.646,13.844c2.392,0.643,4.864,1.176,7.08,2.224c2.152,1.018,5.374,2.345,5.734,4.044
			c0.735,3.46,0.198,6.912-3.484,9.786c-3.674,2.868-6.694,6.224-11.786,5.268c-1.329-0.25-2.913-1.146-3.635-2.238
			c-1.927-2.911-3.45-6.09-5.133-9.163c-0.475,0.09-0.949,0.179-1.424,0.269c0.552,3.413,0.663,6.979,1.782,10.195
			c1.062,3.054,3.268,5.625,1.406,9.198c-0.515,0.988,0.296,2.603,0.275,3.927c-0.038,2.431-0.361,4.86-0.355,7.29
			c0.015,6.204-0.798,12.622,0.543,18.542c0.994,4.389,4.884,8.108,7.395,12.181c0.524,0.851,1.119,2.065,0.897,2.905
			c-1.885,7.138-0.304,13.812,2.035,20.556c1.656,4.776-0.008,8.692-4.199,11.578c-4.035,2.778-8.286,5.269-12.134,8.28
			c-1.761,1.378-2.714,3.754-4.164,5.573c-0.929,1.166-2.268,3.164-3.123,3.019c-2.849-0.483-6.788,2.712-8.51-2.18
			c-0.427-1.214-0.882-2.798-1.833-3.382c-4.408-2.707-2.305-4.404,0.563-6.487c5.451-3.957,10.878-7.971,16.038-12.291
			c1.566-1.311,3.148-3.721,3.124-5.608c-0.075-6.039-0.852-12.074-1.481-18.098c-0.102-0.975-0.569-2.299-1.307-2.76
			c-6.395-3.994-4.513-10.453-5.128-16.228c-0.545-5.119,0.413-10.283-2.657-15.321c-1.69-2.774-0.613-7.235-0.783-10.936
			c-0.368-7.984-0.574-15.979-1.165-23.946c-0.339-4.559-1.313-9.07-1.979-13.607c-0.107-0.73-0.302-1.536-0.111-2.209
			c2.626-9.237,1.742-14.045-4.105-21.681c-3.158-4.124-6.509-8.111-9.458-12.379c-3.044-4.406-4.132-9.374-3.998-14.834
			c0.072-2.923-1.292-5.921-2.223-8.816c-0.623-1.937-1.867-3.686-2.411-5.636c-1.946-6.977-3.923-13.957-5.488-21.025
			c-1.787-8.071-2.431-16.027,1.255-24.062c1.915-4.173,2.229-9.134,2.941-13.789c0.579-3.781,0.746-7.633,0.938-11.461
			c0.055-1.099-0.088-2.513-0.733-3.294c-7.429-8.999-9.678-19.986-7.7-30.587c1.336-7.158,1.352-13.797,0.371-20.602
			c-0.905-6.275-3.578-12.351-4.027-18.617c-0.392-5.469,0.368-11.378,2.15-16.567c3.267-9.512,9.901-17.625,11.892-27.832
			c0.459-2.352,3.084-4.256,4.625-6.429c5.145-7.257,10.634-14.308,15.256-21.886c4.212-6.906,7.451-14.404,11.158-21.62
			c0.859-1.671,1.823-3.295,2.84-4.876c0.641-0.996,1.806-1.759,2.16-2.819c2.942-8.794,9.734-15.082,14.592-22.62
			c0.619-0.96,1.882-1.491,2.565-2.426c1.476-2.022,2.745-4.192,4.143-6.273c1.222-1.819,2.268-3.843,3.816-5.338
			c2.259-2.181,2.853-3.908-0.396-5.426c-3.189-1.491-2.37-3.647-0.525-5.188c2.235-1.866,1.846-3.649,1.763-6.208
			c-0.129-4.001,1.095-8.081,1.99-12.072c1.784-7.955,3.71-15.878,5.626-23.802c0.698-2.886,1.281-5.846,2.422-8.559
			c0.518-1.232,2.235-1.993,3.47-2.881c0.991-0.712,2.364-1.071,3.063-1.976c2.116-2.738,4.215-2.846,5.437,0.34
			c1.67,4.353,6.122,8.591,1.425,13.66c2.48,4.347-1.194,10.442,4.407,14.176c1.683,1.122,1.835,4.541,2.688,6.908
			c-0.645,0.304-1.291,0.608-1.936,0.912c-1.851-3.522-3.702-7.045-6.115-11.636c-1.274,2.262-2.146,3.81-3.347,5.941
			c2.326,0.28,3.673,0.442,4.04,0.486c-1.062,3.434-1.743,6.804-3.164,9.826c-0.969,2.061-2.688,4.056-4.579,5.325
			c-2.566,1.722-2.166,3.57-1.293,5.763c0.218,0.548,0.826,1.036,0.836,1.559c0.201,10.983,10.998,11.37,16.757,16.776
			c0.409,0.384,1.133,0.786,1.611,0.689c6.056-1.223,9.392,2.744,13.175,6.379c3.131,3.008,6.911,5.341,10.337,7.922
			c2.073-6.463,3.392-13.05,6.277-18.86c2.723-5.484,7.013-10.211,10.773-15.149c1.783-2.341,3.798-4.551,5.96-6.548
			c3.031-2.799,6.58-2.518,10.375-1.559c1.229,0.311,3.377-0.618,4.213-1.682c1.424-1.813,1.78-4.489,3.261-6.227
			c1.488-1.747,3.8-2.792,5.751-4.144c0.698,1.876,2,3.77,1.947,5.625c-0.074,2.569-0.901,5.217-1.881,7.64
			c-2.036,5.035-0.494,9.4,5.061,11.606c2.786,1.106,3.814,2.776,4.507,5.437c0.623,2.393,2.336,4.512,2.893,6.909
			c0.507,2.183,0.107,4.577,1.006,7.266c0.688-0.964,1.244-2.068,2.09-2.865c2.537-2.389,4.981-4.966,7.851-6.888
			c2.84-1.902,5.533-3.317,7.097-6.901c0.951-2.18,4.318-3.81,6.933-4.651c5.187-1.67,7.304-3.694,7.673-9.189
			c4.228-0.686,8.401-2.649,12.362,1.528c1.19,1.256,3.923,1.146,5.98,1.459c2.597,0.395,4.363-0.515,4.655-3.433
			c0.384-3.845,0.12-7.954,1.425-11.47c3.948-10.634,3.405-21.894,5.338-32.79c0.701-3.954,3.067-5.591,7.029-4.674
			c5.915,1.369,7.698,4.732,6.235,11.298c-1.285,5.766-2.347,11.582-3.568,17.363c-0.4,1.891-1.112,3.719-1.475,5.615
			c-1.241,6.477-2.493,12.954-3.546,19.463c-1.131,6.994,2.948,11.488,7.969,15.287c3.46,2.617,5.469,5.737,5.363,10.21
			c-0.034,1.426,0.562,2.933,1.128,4.296c2.31,5.562,4.671,11.105,7.134,16.601c0.527,1.175,1.335,2.556,2.395,3.107
			c8.047,4.18,10.558,12.36,13.711,19.71c4.048,9.436,10.383,16.75,17.912,23.327c0.529,0.462,1.12,0.964,1.403,1.576
			c1.77,3.824,3.683,7.605,5.117,11.556c1.553,4.278,2.016,9.043,4.054,13.034c3.956,7.749,6.943,15.902,10.581,23.776
			c1.693,3.666,2.123,7.981,2.75,12.06c1.034,6.717,1.833,13.474,2.58,20.231c0.226,2.045,0.452,4.31-0.175,6.19
			c-2.648,7.935-2.071,15.803-0.4,23.785c0.35,1.674-0.037,3.59-0.441,5.312c-0.523,2.231-1.063,3.978,1.306,5.846
			c1.878,1.48-0.243,9.643-2.649,10.444c-3.467,1.154-4.22,3.674-4.712,6.748c-0.297,1.857-1.216,3.609-1.591,5.461
			c-0.308,1.522-0.794,3.39-0.208,4.64c1.743,3.723-0.222,5.202-3.238,5.553c-3.321,0.386-4.525,2.127-5.214,5.095
			c-0.591,2.547-2.336,4.902-2.571,7.435c-0.274,2.956,0.307,6.061,0.933,9.013c0.846,3.991,2.022,7.919,3.206,11.829
			c0.312,1.03,1.122,1.934,1.796,2.825C553.567,572.531,554.59,573.7,555.626,574.957z M540.374,529.927
			c4.497-5.139,5.614-10.49,5.711-16.369c0.062-3.739,0.107-8.18,2.038-11.036c3.708-5.485,2.687-11.287,3.066-17.029
			c0.485-7.362,1.088-14.756,0.881-22.115c-0.229-8.101-0.725-16.292-2.255-24.222c-0.932-4.827-4.365-9.115-6.093-13.857
			c-3.053-8.38-4.456-17.445-10.846-24.353c-0.643-0.695-1.047-1.931-1.002-2.89c0.325-6.919-3.849-11.151-8.474-15.416
			c-3.305-3.049-6.297-6.572-8.816-10.298c-2.29-3.388-3.788-7.319-5.557-11.048c-0.431-0.908-0.858-1.993-0.763-2.943
			c0.33-3.293-1.647-4.935-3.802-7.019c-4.857-4.696-9.301-9.833-13.698-14.975c-0.826-0.966-0.964-2.807-0.883-4.214
			c0.364-6.329-2.85-11.466-5.613-17.169c-1.833,2.83-2.683,5.781-3.718,8.665c-1.475,4.11-2.953,8.229-4.692,12.23
			c-0.944,2.171-2.888,3.962-3.59,6.175c-2.559,8.077-4.684,16.144-13.181,20.601c-4.081,2.141-8.391,4.898-10.992,8.527
			c-3.044,4.247-6.831,6.604-11.836,8.957c0.74,1.55,1.41,3.286,2.352,4.86c2.284,3.813,4.783,7.497,7.029,11.33
			c2.346,4.004,1.321,6.123-3.24,7.133c-0.956,0.212-1.926,0.357-3.368,0.621c0.779,3.177,0.944,6.316,2.305,8.8
			c1.813,3.312,4.197,6.517,7.001,9.022c2.717,2.428,7.209,2.944,7.586,7.752c0.035,0.443,1.06,0.87,1.683,1.193
			c2.89,1.5,5.799,2.96,9.355,4.767c2.858-1.16,3.734-0.899,6.53,1.535c4.372,3.806,8.492,8.13,13.433,11.008
			c9.653,5.623,14.76,14.291,18.748,24.135c0.787,1.942,2.667,4.803,4.139,4.862c5.6,0.226,6.532,4.946,9.101,8.102
			c2.044,2.512,4.645,4.787,5.929,7.648c1.742,3.88,2.244,8.296,3.679,12.339c1.665,4.693,3.678,9.269,5.706,13.822
			c1.178,2.644,4.912,4.056,3.615,8.005C537.65,527.647,539.403,528.87,540.374,529.927z M348.763,408.318
			c-0.142-0.927-0.007-2.015-0.393-2.251c-3.789-2.314-3.135-6.175-3.331-9.622c-0.132-2.335,0.311-4.558-3.124-4.692
			c-0.419-0.016-1.194-1.961-1.066-2.912c0.459-3.402,1.512-6.743,1.72-10.146c0.06-0.976-1.894-2.862-3.062-2.98
			c-3.795-0.385-7.653-0.144-11.331-0.144c-0.15-1.433,0.164-4.015-0.557-4.346c-3.05-1.401-2.279-4.201-3.12-6.416
			c-0.776-2.044-1.409-4.572-2.962-5.817c-6.765-5.42-9.309-12.061-7.676-20.592c0.394-2.056-0.115-4.56-0.973-6.524
			c-1.756-4.02-4.03-7.813-6.155-11.82c-0.436,0.491-1.077,1.671-1.482,1.595c-4.213-0.789-4.687,2.834-6.263,5.125
			c-1.474,2.143-2.857,4.348-4.339,6.485c-0.585,0.844-1.786,1.505-1.927,2.375c-1.062,6.557-5.469,11.222-9.094,16.287
			c-3.754,5.246-6.859,10.385-0.954,17.372c-6.275-2.239-8.538,0.721-10.119,5.001c-0.435,1.179-1.374,2.828-2.349,3.042
			c-4.769,1.044-5.462,4.479-5.619,8.444c-0.106,2.669-0.003,5.399-0.545,7.986c-0.654,3.123-1.211,8.169-3.013,8.768
			c-4.269,1.42-5.633,4.626-7.28,7.702c-2.578,4.812-5.259,9.744-6.648,14.958c-0.987,3.706-2.566,5.993-5.937,6.947
			c-3.506,0.992-4.566,2.999-3.578,6.328c1.723,5.806,4.439,11.516,4.983,17.427c0.869,9.43,1.1,19.079,0.089,28.473
			c-0.826,7.669,2.219,13.682,4.49,21.047c3.068-2.294,5.528-3.91,7.731-5.823c5.891-5.118,11.915-10.122,17.393-15.66
			c2.726-2.756,4.272-6.652,6.539-9.901c1.488-2.133,3.128-4.246,5.078-5.93c0.75-0.647,2.934,0.467,3.811-0.15
			c6.29-4.425,12.474-9.006,18.567-13.701c5.392-4.155,10.075-9.721,16.077-12.457c6.136-2.798,7.045-7.737,9.05-12.637
			c3.57-0.405,7.129-0.808,11.227-1.273c0.875-5.968,1.821-12.427,2.805-19.141C346.006,408.673,347.268,408.51,348.763,408.318z
			 M382.713,688.913c0.548-0.276,1.096-0.553,1.644-0.829c-0.098-1.351-0.067-2.726-0.315-4.049
			c-1.553-8.283-2.11-16.348,0.78-24.677c1.599-4.608,1.061-9.964,1.422-14.988c0.039-0.544-0.505-1.115-0.523-1.682
			c-0.078-2.389-0.691-4.997,0.039-7.132c2.354-6.885,4.383-13.585,1.314-20.843c-0.83-1.963-1.435-4.776-0.648-6.526
			c2.305-5.126,0.685-10.192,0.748-15.273c0.011-0.893,0.071-1.786,0.134-2.676c0.466-6.511,1.243-13.018,1.329-19.534
			c0.101-7.57-0.711-15.154-0.579-22.722c0.297-17.076-0.587-34.089-1.953-51.094c-0.472-5.878-0.762-11.771-1.097-17.659
			c-0.116-2.034-0.176-4.076-0.153-6.113c0.026-2.313-0.733-5.628,0.47-6.717c2.159-1.954,1.394-3.452,1.113-5.492
			c-0.314-2.275-0.015-4.626-0.129-6.937c-0.311-6.292-0.046-12.71-1.271-18.826c-0.929-4.637-3.796-8.886-6.054-13.868
			c-6.674,4.805-12.313-3.17-19.056-2.155c-0.115,0.763-0.283,1.211-0.229,1.63c0.447,3.46,1.748,7.055,1.18,10.33
			c-0.563,3.243-2.384,6.815-4.769,9.056c-2.955,2.777-4.024,6.335-2.972,9.103c1.359,3.577-1.313,6.103-0.711,9.385
			c0.47,2.561-1.058,5.489-1.698,8.254c0.511-0.065,1.022-0.13,1.534-0.195c1.334,0.666,2.668,1.332,4.327,2.16
			c-4.665,3.666-6.096,7.87-6.128,12.77c-0.008,1.22-0.228,2.762-0.975,3.594c-2.276,2.534-2.191,4.624,0.696,6.445
			c-0.774,1.366-1.405,2.478-2.382,4.203c1.304-0.215,1.948-0.42,2.584-0.398c0.624,0.021,1.241,0.272,3.145,0.734
			c-11.809,7.816-9.582,18.778-9.01,27.795c3.177,2.468,6.603,3.797,7.177,5.903c0.759,2.787,0.294,6.985-1.433,9.151
			c-3.712,4.654-4.941,9.693-4.6,15.197c0.263,4.247,1.673,8.414,2.075,12.664c0.754,7.978,1.132,15.991,1.698,23.987
			c0.282,3.991,0.087,8.118,1.069,11.937c2.033,7.901,4.607,15.671,7.173,23.423c1.001,3.024,2.688,5.816,3.847,8.797
			c0.516,1.327,0.797,2.889,0.664,4.295c-0.322,3.393-1.615,6.825-1.282,10.116c0.385,3.804-2.406,9.611,4.829,10.493
			c0.487,0.059,0.974,1.04,1.259,1.682c2.459,5.539,4.493,11.31,7.425,16.583C376.586,682.11,379.906,685.369,382.713,688.913z
			 M340.997,447.771c-4.341,2.221-7.347,3.544-10.118,5.249c-1.981,1.219-3.559,3.076-5.484,4.407
			c-1.252,0.865-2.953,2.022-4.19,1.768c-2.532-0.522-3.015,0.436-3.612,2.528c-0.379,1.329-1.685,3.135-2.843,3.361
			c-3.611,0.707-6.296,1.663-5.876,6.166c0.073,0.787-1.164,2.369-1.917,2.449c-4.481,0.478-8.507,1.419-10.381,6.216
			c-0.166,0.426-0.995,0.589-1.51,0.883c-9.614,5.503-18.341,11.934-25.479,20.669c-3.473,4.25-6.113,9.704-13.489,10.339
			c-5.373,0.463-5.201,3.305-3.699,8.516c2.32,8.053,8.926,12.447,14.031,18.047c3.888,4.264,6.136,11.148,3.356,16.103
			c-1.445,2.576-3.003,4.752-1.201,7.796c0.295,0.498-0.562,2.447-1.05,2.512c-2.979,0.401-6.47,1.466-8.896,0.356
			c-2.895-1.324-5.275-3.823-4.438-8.537c0.777-4.379-0.143-9.379-1.533-13.716c-1.001-3.125-3.999-5.61-6.106-8.38
			c-0.431,0.28-0.861,0.56-1.292,0.84c-0.247,3.376-0.378,6.765-0.762,10.125c-0.942,8.253-0.79,16.321,2.671,24.118
			c1.581,3.562,2.573,7.383,3.976,11.031c0.41,1.065,1.636,1.849,1.934,2.917c0.972,3.493,3.071,7.438,2.221,10.515
			c-1.886,6.831,0.126,11.818,4.387,16.736c2.51,2.898,4.844,6.017,6.791,9.312c1.643,2.78,2.615,5.957,4.278,9.89
			c1.555-2.184,2.421-3.182,3.043-4.314c2.072-3.774,3.47-8.094,6.19-11.302c6.625-7.814,9.224-18.254,16.932-25.284
			c0.404-0.368,0.507-1.064,0.756-1.604c2.981-6.465,4.54-13.688,10.431-18.58c2.139-1.777,3.672-4.275,5.777-6.104
			c3.924-3.409,8.353-6.285,9.877-11.748c0.286-1.023,1.347-1.884,2.174-2.693c3.718-3.637,9.592-6.312,5.631-13.252
			c-0.321-0.563,0.191-1.569-0.08-2.198c-2.672-6.189,2.011-12.685-0.812-18.87c-0.19-0.417,0.249-1.119,0.387-1.69
			c1.022-4.225,2.023-8.455,3.069-12.673c1.127-4.543-1.077-9.712,3.177-13.808c1.129-1.086,1.215-5.09,0.147-6.248
			c-2.355-2.554-1.781-4.592-0.721-7.162c0.902-2.186,1.855-4.44,2.191-6.751C339.795,459.806,340.321,453.859,340.997,447.771z
			 M534.376,571.082c-2.08,3.181-6.724,4.026-9.524,1.53c-3.676-3.277-4.692-8.022-2.206-12.553
			c2.024-3.69,4.536-7.115,6.853-10.643c3.588-5.462,0.385-10.36-1.729-15.003c-1.674-3.678-5.203-6.502-6.933-10.165
			c-2.323-4.921-3.595-10.328-5.539-15.442c-1.092-2.873-2.158-5.962-4.055-8.283c-5.102-6.24-10.699-12.073-15.974-18.175
			c-1.313-1.519-2.147-3.449-3.208-5.186c-3.279-5.366-4.933-11.81-10.913-15.361c-3.261-1.937-6.176-4.459-9.23-6.739
			c-4.51-3.368-8.846-7.001-13.559-10.054c-3.47-2.248-7.412-3.777-11.177-5.553c-0.582-0.274-1.348-0.158-1.04-0.129
			c0,2.913,0.006,5.542-0.003,8.171c-0.005,1.489-0.277,3.022-0.015,4.46c1.739,9.547,4.437,18.856,4.382,28.789
			c-0.036,6.559,2.97,12.76,1.481,19.889c-1.86,8.91-1.821,18.228-2.434,27.381c-0.274,4.097-1.769,8.736,3.706,11.049
			c0.669,0.283,0.987,1.437,1.431,2.209c2.427,4.222,4.68,8.555,7.307,12.648c2.711,4.224,5.827,8.185,8.676,12.323
			c1.548,2.249,2.472,5.125,4.437,6.855c6.329,5.573,13.043,10.707,19.517,16.119c0.797,0.666,1.372,1.953,1.491,3.015
			c0.517,4.612,0.823,9.227,5.207,12.205c0.486,0.33,0.925,1.403,0.754,1.924c-2.009,6.116,1.682,10.774,4.002,15.745
			c0.323,0.691,2.004,1.544,2.333,1.309c2.519-1.798,4.747-4.006,7.28-5.781c4.084-2.862,2.002-8.807,6.389-11.759
			c2.596-1.747,3.042-5.175,3.714-8.558c0.83-4.179,3.985-8.055,6.666-11.667C535.906,581.01,534.685,576.078,534.376,571.082z
			 M400.71,443.16c-1.038,4.091-3.227,8.076-2.695,11.657c0.919,6.191,5.158,12.067,0.369,18.371
			c-0.314,0.413-0.234,1.156-0.264,1.75c-0.527,10.249-1.527,20.467,1.43,30.62c1.671,5.737,2.467,11.731,3.598,17.62
			c0.099,0.516-0.234,1.121-0.386,1.679c-1.115,4.104-2.936,8.166-3.18,12.32c-0.329,5.594,0.544,11.261,0.922,16.895
			c0.516,7.7,4.443,15.426-0.332,23.106c-0.544,0.875-0.284,2.36-0.137,3.53c0.311,2.481,1.598,5.135,1.056,7.372
			c-1.761,7.274-1.39,14.264-0.119,21.62c1.075,6.223,0.472,12.822-0.025,19.206c-0.47,6.044,2.123,12.075-1.44,18.278
			c-2.275,3.961-2.329,9.304-2.943,14.083c-0.645,5.021-0.777,10.109-1.099,15.169c-0.013,0.205,0.331,0.433,0.565,0.719
			c2.88-0.895,6.42-1.05,5.743-5.669c-0.065-0.443,0.456-1.291,0.883-1.439c5.887-2.047,6.307-7.622,8.106-12.326
			c0.406-1.062,0.859-2.645,1.662-2.926c3.941-1.379,4.064-5.045,5.28-8.063c0.437-1.085,0.668-2.256,1.146-3.32
			c1.672-3.721,4.213-7.261,4.949-11.148c1.329-7.017,1.155-14.29,4.295-20.988c1.358-2.896,2.241-6.041,3.106-9.138
			c2.418-8.659,5.966-16.857,5.162-26.456c-0.786-9.381,2.411-18.8,1.307-28.462c-1.043-9.13-1.208-18.369-1.517-27.568
			c-0.119-3.538,0.321-7.111,0.711-10.646c0.321-2.914,1.394-5.801,1.35-8.688c-0.14-9.194-0.637-18.25-2.352-27.468
			c-1.359-7.305-1.804-15.164-2.675-22.769c-1.059-9.253-2.443-18.469-3.619-27.71c-0.71-5.58-3.053-9.28-7.504-8.895
			c-4.837,0.419-10.18-0.038-14.038,5.022c-2.808,3.682-3.433,10.374-10.491,9.208c0,3.634,0.172,6.759-0.047,9.857
			C397.255,440.884,397.27,443.716,400.71,443.16z M390.559,295.962c-2.104,1.138-3.701,1.697-4.912,2.716
			c-3.241,2.727-7.605,5.067-9.208,8.608c-4.243,9.373-5.639,19.506-3.681,29.816c0.729,3.838,0.414,7.272-2.095,10.458
			c-0.59,0.749-0.841,2.311-0.478,3.175c1.987,4.734,0.281,7.48-4.059,9.716c-1.562,0.805-3.489,3.624-3.123,4.926
			c1.029,3.659-0.341,5.933-2.999,7.612c-3.695,2.333-4.495,6.085-4.5,9.695c-0.005,3.957,1.174,7.926,1.949,11.867
			c0.162,0.825,0.654,1.725,1.266,2.3c6.664,6.254,15.093,8.97,23.528,11.712c2.698,0.877,5.282,2.112,7.896,3.234
			c2.298,0.985,4.571,3.72,7.042,0.65c3.42-4.25,6.735-8.425,12.256-10.233c2.544-0.833,5.348-1.944,7.118-3.802
			c2.381-2.5,4.002-3.019,6.711-0.673c0.635,0.55,3.669-0.203,3.821-0.805c0.797-3.157,1.725-6.553,1.305-9.691
			c-0.983-7.334-2.882-14.541-4.061-21.856c-0.612-3.795-0.855-7.474-5.214-9c-0.456-0.16-0.917-0.829-1.039-1.341
			c-1.057-4.445-1.614-9.061-3.155-13.325c-1.689-4.672-1.818-10.287-7.097-13.195c-2.836-1.562-1.665-4.469-0.132-5.636
			c2.631-2.001,1.59-3.701,0.741-5.782c-1.104-2.705-1.94-5.533-3.216-8.15c-1.212-2.485-1.441-6.812-6.332-4.158
			c-0.516,0.28-2.236-1.077-3.023-1.994C393.894,300.508,392.138,298.026,390.559,295.962z M443.593,356.668
			c2.711,2.804,4.454-0.215,5.94-2.253c3.044-4.174,7.361-7.211,8.921-12.778c2.103-7.503,6.336-14.44,8.144-21.982
			c1.076-4.489,2.044-8.607,4.773-12.35c0.887-1.216,1.015-2.986,1.551-4.699c-2.526-0.126-4.149-0.026-5.695-0.325
			c-2.805-0.543-5.598-1.98-8.332-1.836c-3.247,0.171-6.477,2.469-9.624,2.288c-3.642-0.209-4.83,1.282-5.686,4.121
			c-1.434,4.758-5.703,7.193-9.386,9.21c-6.436,3.524-12.639,7.156-12.076,15.199c0.318,4.538,2.279,10.165,5.517,12.988
			c4.055,3.535,3.731,8.13,5.796,12.003c1.246,2.337,1.405,5.253,2.053,7.908c0.584,0.202,1.167,0.404,1.751,0.606
			C439.167,362.313,441.094,359.856,443.593,356.668z M336.03,358.593c0.426-0.175,0.852-0.349,1.278-0.524
			c1.688,1.826,3.335,3.694,5.084,5.46c0.766,0.773,1.972,2.039,2.567,1.841c0.98-0.325,1.819-1.555,2.371-2.588
			c1.091-2.044,1.733-5.877,2.936-6.031c4.016-0.513,3.659-3.259,4.181-5.749c0.573-2.73-2.412-6.41,2.163-8.11
			c0.119-0.044,0.131-0.951-0.09-1.241c-1.903-2.497-3.485-5.439-5.889-7.318c-9.101-7.114-18.459-13.9-27.765-20.75
			c-1.226-0.903-2.701-1.469-4.06-2.191c0.146,2.062,1.075,3.284,1.837,4.603c2.551,4.421,6.309,8.175,6.671,13.771
			c0.313,4.829,1.431,9.602,1.83,14.43c0.424,5.137,2.386,8.464,8.293,8.134C336.91,354.681,336.47,356.637,336.03,358.593z"/>
		<path d="M617.099,361.164c-2.585,8.432-11.085,8.812-16.736,13.087c-5.035,3.809-11.048,6.351-14.04,12.513
			c-0.257,0.529-2.697,0.633-3.622,0.086c-2.823-1.669-5.318-3.773-9.041-2.886c-0.542,0.129-2.294-1.833-2.258-2.781
			c0.163-4.269,0.854-8.515,1.167-12.784c0.105-1.428-0.355-2.896-0.536-4.348c-0.253-2.029-0.486-4.061-0.102-6.222
			c-5.596-5.565-3.378-12.603-3.193-19.273c0.047-1.692-0.053-3.418-0.345-5.083c-0.713-4.068-2.185-8.098-2.257-12.163
			c-0.15-8.512-5.476-12.662-12.248-15.467c-3.458-1.432-4.315-3.708-4.439-6.899c-0.135-3.448,1.467-6.375,4.638-6.762
			c5.476-0.668,6.972-3.428,6.228-8.333c-0.058-0.382,0.257-0.821,0.566-1.723c1.382,0.982,2.599,1.846,4.445,3.157
			c0.194-3.381,0.761-6.39,0.455-9.307c-0.76-7.226-1.657-14.46-3.016-21.592c-0.819-4.299-2.605-8.413-4.276-13.604
			c5.207,0.558,8.869,0.527,10.739-4.126c0.724-1.802,4.272-0.189,4.904,2.04c0.62,2.187,1.729,4.231,2.499,6.383
			c0.43,1.201,0.785,2.481,0.872,3.746c0.473,6.823,0.393,13.722,1.419,20.455c0.719,4.724,3.123,9.166,4.362,13.843
			c1.067,4.032-0.453,6.718-4.775,8.14c-4.703,1.548-2.217,6.031-2.695,9.162c-0.335,2.193,0.703,4.595,1.182,7.198
			c1.042,0,2.268,0,4.212,0c-0.42,1.423-0.869,2.414-0.982,3.442c-0.219,2.003-0.533,4.064-0.268,6.028
			c0.208,1.546,1.567,2.925,1.828,4.477c1.146,6.819,1.971,13.693,3.154,20.506c0.365,2.102,1.597,4.04,2.234,6.114
			c0.4,1.303,0.726,2.754,0.573,4.08c-0.44,3.814-1.14,7.597-1.917,12.527c4.724-1.723,8.753-2.879,12.497-4.643
			c4.136-1.948,8.298-4.075,11.91-6.83c3.184-2.428,5.652-5.804,8.365-8.826c0.335-0.374,0.396-1.169,0.304-1.723
			c-0.831-5.015-1.88-10-2.541-15.036c-0.4-3.047-0.001-6.196-0.355-9.253c-0.795-6.863-1.718-13.717-2.819-20.538
			c-0.745-4.613-1.673-9.223-2.967-13.706c-0.402-1.392-2.153-2.528-3.504-3.469c-0.963-0.671-2.289-0.819-3.255-1.844
			c3.675-0.897,6.948-0.427,9.775,3.263c0.851-1.168,2.375-2.403,2.16-3.108c-1.2-3.943,2.068-5.078,3.886-7.259
			c1.163-1.395,2.102-3.369,2.231-5.149c0.245-3.387,0.027-6.844-0.382-10.226c-0.196-1.622-1.29-3.128-1.928-4.707
			c-0.476-1.178-1.289-2.407-1.234-3.579c0.275-5.846,1.735-6.915,7.643-5.741c2.921,0.581,5.797,1.39,8.688,2.12
			c0.553,0.14,1.355,0.24,1.57,0.623c1.881,3.357,4.047,6.632,5.339,10.217c1.056,2.93,4.695,5.372,2.381,9.257
			c-0.077,0.13,1.052,1.293,1.766,1.526c3.664,1.193,2.445,3.184,0.31,4.177c-4.594,2.137-5.416,5.512-4.219,9.877
			c1.669,6.087-2.321,10.214-5.313,14.473c-1.322,1.881-2.713,2.519-1.459,5.461c0.91,2.134-0.84,5.402-1.475,8.513
			c-0.847-0.225-1.996-0.531-3.5-0.931c1.751,5.141,3.388,9.949,4.823,14.164c-0.533,4.707-1.035,9.14-1.479,13.059
			c6.521-0.307,12.343-0.514,18.154-0.903c1.397-0.094,3.51-0.383,3.998-1.284c2.176-4.016,5.256-2.575,8.115-1.642
			c4.095,1.337,13.198-0.998,14.106-4.779c0.699-2.91-0.966-6.47-1.895-9.648c-0.386-1.321-1.972-2.29-2.359-3.611
			c-2.072-7.07-3.869-14.22-5.893-21.304c-2.023-7.077-4.918-13.999-6.028-21.204c-0.611-3.969,1.39-8.473,2.731-12.565
			c0.906-2.764,2.42-5.456,4.19-7.778c2.464-3.231,5.434-6.073,8.161-9.106c0.845-0.94,1.593-1.966,2.401-2.94
			c0.868-1.045,1.599-2.635,2.682-2.936c0.891-0.248,2.209,1.042,3.338,1.65c-0.246,0.49-0.491,0.98-0.737,1.47
			c2.812-2.083,5.533-4.312,8.483-6.177c1.146-0.724,2.801-0.783,4.242-0.875c5.733-0.364,11.43-0.504,14.692-6.643
			c0.418-0.787,3.356-1.092,4.526-0.478c6.122,3.215,12.2,6.571,17.979,10.356c2.65,1.736,4.272,5.027,6.907,6.8
			c4.559,3.068,6.066,6.614,6.074,12.308c0.01,6.661,2.311,13.319,3.603,19.981c0.113,0.582,0.333,1.283,0.125,1.766
			c-2.521,5.853-3.44,11.859-2.055,18.156c0.114,0.519-0.062,1.437-0.427,1.678c-6.923,4.56-3.517,12.13-5.248,18.182
			c-0.878,3.071,0.051,5.738,4.019,6.56c4.796,0.994,7.942,4.178,9.933,8.654c0.411,0.924,1.595,1.777,2.606,2.112
			c4.02,1.333,2.834,3.701,1.569,6.313c-0.842,1.739-1.487,3.59-2.048,5.443c-0.598,1.973-1.342,3.998-1.404,6.019
			c-0.132,4.312,0.05,8.641,0.281,12.953c0.089,1.671,0.672,3.314,0.995,4.977c0.054,0.276-0.18,0.619-0.103,0.879
			c3.311,11.158-1.75,22.266-0.228,33.431c0.209,1.536-0.632,3.194-0.865,4.813c-1.999,13.897-4.656,27.609-4.82,41.855
			c-0.138,12.035,2.083,23.937,0.976,35.927c-0.239,2.593-1.707,5.287-1.262,7.684c0.977,5.253-1.229,11.369,3.841,15.674
			c0.423,0.359,0.356,1.824-0.004,2.496c-3.891,7.269-0.158,14.514-0.069,21.761c0.069,5.603,0.23,11.235-0.245,16.804
			c-0.332,3.886-0.75,7.248,4.361,8.08c-4.497,4.521-2.661,9.793-2.256,14.57c0.712,8.409,1.956,17.034,6.894,24.042
			c3.574,5.071,3.606,9.159,0.975,14.404c-1.351,2.693-2.186,6.388,1.876,8.599c0.53,0.288,0.339,2.117,0.282,3.223
			c-0.15,2.922-0.865,5.889-0.541,8.746c0.957,8.443,2.41,16.828,3.435,25.264c0.272,2.24-0.522,4.594-0.41,6.876
			c0.095,1.924,0.296,4.164,1.329,5.654c2.192,3.159,4.911,5.559,3.06,10.283c-0.946,2.416-0.001,5.938,0.972,8.642
			c1.04,2.892,2.331,5.327-1.511,7.371c4.421,4.646,2.326,9.962,2.717,14.984c0.25,3.205,1.926,6.277,2.387,9.492
			c0.807,5.626,3.236,10.456,6.001,15.295c0.684,1.197-0.74,3.444-0.678,5.19c0.094,2.655,0.31,5.392,1.062,7.919
			c1.545,5.197,2.472,7.293-1.698,12.642c0.967,0.438,2.046,0.926,2.918,1.321c-0.297,1.003-0.296,1.534-0.561,1.816
			c-3.366,3.57-6.685,7.193-10.219,10.59c-1.001,0.962-2.677,1.777-4.014,1.733c-4.417-0.145-8.502-0.079-9.669,6.465
			c-3.224-4.937-6.225-3.643-9.432-1.889c-1.086,0.594-2.734,0.896-3.873,0.536c-6.843-2.165-13.1-0.56-19.386,2.226
			c-4.486,1.988-12.276-3.067-11.833-7.602c0.172-1.758,1.037-4.185,2.372-4.97c7.154-4.207,14.529-8.045,21.906-11.857
			c0.935-0.483,2.334-0.066,3.559-0.066c0.828-2.05,1.631-4.038,2.698-6.678c1.247,1.635,2.053,2.692,3.271,4.288
			c0.962-1.227,1.576-2.387,2.52-3.124c1.313-1.025,2.967-2.583,4.312-2.435c6.66,0.736,11.25-3.665,10.218-10.124
			c-0.419-2.622-0.354-5.321-0.771-7.944c-0.531-3.343-1.499-6.232-4.049-9.065c-1.94-2.155-3.436-6.452-0.72-9.822
			c2.124-2.635,1.686-4.205-0.596-4.702c0-3.592,0.46-6.699-0.109-9.604c-0.826-4.217-2.067-8.022-0.562-12.619
			c0.924-2.823-0.565-6.687-1.632-9.862c-3.381-10.068-5.221-20.318-5.255-30.964c-0.016-4.883-0.523-9.824-1.4-14.631
			c-1.132-6.205-5.035-7.824-11.186-6.336c-4.158,1.005-8.629,0.809-12.966,0.957c-3.538,0.121-7.099,0.134-10.628-0.121
			c-5.622-0.407-11.226-1.076-16.644-2.451c-2.16,0.584-4.307,1.222-6.485,1.732c-1.155,0.27-2.698-0.098-3.488,0.539
			c-3.928,3.166-5.414,1.241-6.039-3.177c-4.583,0.815-9.42,0.372-10.865,7.73c-1.488-2.477-2.307-3.841-3.548-5.905
			c-3.61-0.353-7.978-0.78-12.274-1.2c-2.79,8.981-2.431,13.984,0.983,22.551c-1.222,3.839-2.013,6.413-2.864,8.968
			c-0.547,1.643-0.759,3.649-1.845,4.821c-6.5,7.018-6.5,16.093-6.432,24.402c0.073,9.038-2.817,16.458-6.966,23.919
			c-1.02,1.835-1.712,4.006-1.957,6.092c-1.107,9.43-1.809,18.911-3.066,28.319c-0.482,3.609-1.412,6.913,1.035,10.231
			c1.307,1.771,0.891,3.395-0.697,5.497c-2.225,2.945-3.339,6.756-4.771,10.261c-1.055,2.582-2.893,4.012-5.509,3.159
			c-7.107-2.317-12.46,2.902-18.721,4.158c-2.872,0.576-5.43,2.714-8.248,4.205c-0.626-0.564-1.97-2.229-2.335-2.037
			c-6.543,3.443-13.546-4.149-20.117,0.894c-0.818,0.628-3.983-0.434-4.972-1.62c-5.95-7.141-3.364-13.452,5.072-17.904
			c7.54-3.979,15.057-2.447,22.633-2.607c3.79-0.08,7.328,0.348,10.305-2.89c0.707-0.769,3.374-0.472,4.689,0.208
			c2.735,1.414,3.79,0.733,4.259-2.105c0.776-4.699,1.515-9.418,2.623-14.044c0.776-3.239,2.26-6.302,3.194-9.512
			c0.494-1.696,0.736-3.548,0.666-5.312c-0.306-7.706,2.779-14.61,4.807-21.783c0.625-2.211,0.145-4.716,0.626-6.991
			c1.107-5.237,2.492-10.414,3.766-15.615c0.071-0.29,0.312-0.651,0.214-0.853c-4.345-8.973,4.313-14.56,5.918-22.049
			c2.379-11.106,4.756-22.065,4.798-33.5c0.017-4.55,1.229-9.107,2.012-13.641c1.188-6.876,2.476-13.735,3.718-20.602
			c0.079-0.439-0.046-1.065,0.206-1.302c7.014-6.583,3.155-15.894,5.924-23.556c2.107-5.83,4.432-11.706,5.482-17.766
			c1.915-11.049,9.588-21.277,6.829-32.641c-1.287-5.301-0.245-10.433-1.622-15.632c-1.027-3.876,1.146-8.521,1.442-12.855
			c0.183-2.687-0.629-5.426-0.726-8.151c-0.148-4.156-0.643-8.423,0.073-12.455c0.819-4.611-1.751-7.883-2.978-11.726
			c-0.82-2.571-2.08-5.515-1.526-7.92c2.169-9.43,0.493-18.744-0.086-28.089c-0.092-1.488-1.404-2.868-1.95-4.371
			c-0.481-1.325-1.099-2.806-0.929-4.124c0.65-5.029-1.798-7.724-7.054-7.329c-6.01,0.451-12.018,0.936-18.021,1.467
			c-0.681,0.06-1.691,0.33-1.935,0.812c-2.685,5.314-7.667,3.044-11.361,2.805c-5.234-0.339-7.984-5.35-7.624-10.699
			c0.656-9.767,1.078-19.55,1.566-29.328c0.028-0.55-0.225-1.114-0.348-1.671C617.766,361.677,617.432,361.42,617.099,361.164z
			 M714.027,601.455c1.243,0.752,2.325,1.408,3.407,2.062c2.931,1.771,5.695,3.97,8.837,5.203c3.917,1.537,8.279,1.943,12.197,3.478
			c2.604,1.021,4.326,0.795,6.507-0.813c3.786-2.791,5.045-6.403,4.676-10.892c-0.695-8.454-1.02-16.951-2.081-25.357
			c-0.6-4.754-1.935-9.532-3.72-13.986c-1.693-4.224-1.177-7.974-0.166-12.155c0.918-3.797,1.435-7.941,0.911-11.766
			c-0.529-3.863-3.524-7.47-3.727-11.28c-0.481-9.055-0.654-18.241,0.343-27.23c1.356-12.223,2.567-24.128-4.306-35.27
			c-0.503-0.816,0.26-2.427,0.465-3.663c0.342-2.058,1.561-4.439,0.919-6.111c-2.884-7.508-1.534-15.006-0.221-22.368
			c1.81-10.148,4.989-20.074,6.446-30.257c1.11-7.755,0.525-15.763,0.549-23.659c0.009-2.896-0.757-5.824-0.522-8.684
			c0.277-3.37-0.597-4.418-3.928-3.43c-6.298,1.869-12.586,3.771-19.333,5.797c-0.742,0.776-1.943,3.163-3.548,3.475
			c-3.347,0.651-6.961,0.585-10.364,0.1c-3.111-0.443-5.638-1.041-6.414,3.093c-0.087,0.463-1.761,0.611-2.688,0.937
			c-1.937,0.681-3.929,1.25-5.789,2.101c-5.723,2.62-11.395,5.352-17.79,8.372c0.827,1.629,1.709,3.356,2.581,5.089
			c0.856,1.702,2.443,3.429,2.401,5.112c-0.102,4.097-1.697,8.234-1.374,12.25c0.88,10.927,2.286,21.82,3.785,32.686
			c1.127,8.167,2.615,16.189,1.648,24.585c-0.65,5.645,0.742,11.439-2.111,16.951c-0.766,1.48,0.042,3.99,0.599,5.889
			c0.956,3.261,3.687,6.694,3.119,9.545c-0.819,4.112-1.499,7.268,3.732,9.763c-5.27,1.774-5.205,5.272-5.437,8.695
			c-0.27,3.983,0.509,8.647-1.307,11.772c-2.704,4.654-3.876,9.386-4.898,14.451c-0.716,3.548-2.369,6.9-3.504,10.372
			c-0.552,1.689-0.973,3.435-1.285,5.186c-2.386,13.405-4.144,26.957-9.825,39.557c-0.685,1.52-0.686,3.348-1.015,5.097
			c2.865,0,5.247-0.311,7.516,0.064c4.962,0.82,9.83,2.474,14.807,2.847c3.41,0.256,7.853,0.018,10.2-1.95
			c3.493-2.929,6.881-4.301,9.411-2.358c3.351-0.203,5.53-0.334,8.462-0.512C712.343,604.014,713.056,602.931,714.027,601.455z
			 M690.653,317.559c0.414-0.612,0.608-0.836,0.734-1.094c0.576-1.177,1.133-2.364,1.698-3.547c0.708,0.88,1.315,1.873,2.148,2.611
			c1.041,0.923,2.4,1.503,3.377,2.477c1.063,1.059,2.028,2.311,2.683,3.651c0.419,0.856,0.038,2.067,0.293,3.046
			c1.139,4.393-1.076,9.057-5.541,9.504c-6.121,0.613-10.823,4.637-16.605,5.856c-0.977,0.206-1.898,0.881-2.74,1.486
			c-6.029,4.325-12.049,8.609-20.128,5.633c-0.381-0.14-0.896-0.008-1.327,0.091c-3.426,0.78-6.817,1.778-10.279,2.324
			c-3.484,0.55-7.033,0.751-10.562,0.932c-3.566,0.184-4.063,2.178-2.754,4.811c1.018,2.047,0.648,3.406-0.046,5.581
			c-1.008,3.156-1.322,7.513,0.158,10.213c1.516,2.765,1.833,4.799,1.416,7.689c-0.279,1.939,0.117,4.892,1.388,5.883
			c1.315,1.025,4.05,0.228,7.059,0.228c1.627,2.672,4.532,1.472,7.482-0.013c4.075-2.051,8.147-4.111,12.249-6.106
			c7.695-3.742,15.429-7.406,23.11-11.177c2.631-1.292,5.028-3.15,7.753-4.142c3.897-1.419,7.944-2.84,12.026-3.229
			c4.579-0.436,7.278-2.725,8.529-5.031c5.133-0.71,9.273-1.237,13.385-1.932c0.367-0.062,0.875-1.289,0.76-1.864
			c-0.647-3.227,1.824-3.346,3.76-3.783c3.893-0.878,8.335,1.148,11.765-2.361c1.015-1.038,3.273-1.607,3.414-2.608
			c0.356-2.53,0.616-5.378-2.858-6.673c-4.013-1.495-8.052-3.089-11.73-5.238c-1.752-1.024-3.765-3.406-3.813-5.221
			c-0.184-7.072,0.062-14.196,0.792-21.234c0.327-3.156-1.342-6.243,1.98-9.817c3.167-3.407,3.521-9.54,4.761-14.561
			c0.356-1.441-0.502-3.181-0.829-4.917c0.959-0.648,2.359-1.595,2.989-2.021c-1.668-4.848-3.469-8.89-4.424-13.123
			c-1.711-7.582-3.412-14.882-12.828-16.295c-0.573-0.086-1.089-0.506-1.662-0.652c-2.955-0.756-6.008-2.175-8.157,1.608
			c-0.333,0.586-1.561,1.023-2.321,0.952c-8.674-0.817-15.773,3.599-22.676,7.578c-3.482,2.007-7.305,5.444-6.204,11.017
			c0.14,0.707-2.015,1.867-3.742,3.37c0.655,4.743,1.433,10.462,2.24,16.176c0.461,3.263-0.232,6.972,3.885,8.765
			c0.7,0.305,0.901,2.095,1.064,3.237c0.715,5.016,1.112,10.088,2.06,15.057C685.034,314.101,686.924,316.836,690.653,317.559z"/>
	</g>
</g>
<g>
</g>
<g>
</g>
<g>
</g>
<g>
</g>
<g>
</g>
<g>
</g>
</svg>
